#N canvas 1962 161 923 726 10;
#X declare -lib mrpeach;
#X obj 205 -107 comport 9600;
#X obj 168 23 tabplay~ snare;
#X obj 172 -14 bng 15 250 50 0 empty empty empty 17 7 0 10 -262144
-1 -1;
#X obj 38 1 bng 15 250 50 0 empty empty empty 17 7 0 10 -262144 -1
-1;
#X obj 38 28 tabplay~ bass;
#X obj 738 -350 table snare;
#X obj 738 -321 bng 15 250 50 0 empty empty empty 17 7 0 10 -262144
-1 -1;
#X obj 738 -294 openpanel;
#X obj 738 -210 soundfiler;
#X obj 739 -129 bng 15 250 50 0 empty empty empty 17 7 0 10 -262144
-1 -1;
#X obj 739 -102 openpanel;
#X obj 739 -73 soundfiler;
#X obj 739 -158 table bass;
#X msg 738 -239 read -resize \$1 snare;
#X msg 743 -73 read -resize \$1 bass;
#X obj 166 52 *~ 0.5;
#X obj 38 57 *~ 0.5;
#X text 769 -141 Click to load sample;
#X obj 163 82 dac~;
#X obj 231 -190 bng 15 250 50 0 empty empty empty 17 7 0 10 -262144
-1 -1;
#X msg 171 -166 devices;
#X msg 214 -139 open 6;
#X msg 275 -137 close 6;
#X obj 283 -173 bng 15 250 50 0 empty empty empty 17 7 0 10 -262144
-1 -1;
#X obj 13 -350 import mrpeach;
#X obj 13 -321 udpreceive 9001;
#X obj 13 -292 unpackOSC;
#X obj 348 -350 route /one /two /three /four;
#X obj 389 -281 print;
#X obj 479 -321 print;
#X obj 431 -281 print;
#X obj 348 -321 print;
#X obj 524 -301 print;
#X text 738 -266 comment;
#X msg 201 -246 symbol C:/Users/Cody.Cody-ideapad/Desktop/drum/musicradar-drum-samples/AssortedHits/Snares
;
#X obj 12 -226 udpreceive 9600;
#X obj 12 -197 unpackOSC;
#X obj 12 -168 print;
#X obj 740 -38 soundfiler;
#X obj 72 0 * 0.009;
#X obj 208 -4 * 0.01;
#X obj 95 -98 print;
#X obj 28 88 dac~;
#X obj 415 -39 route 2 3;
#X obj 306 92 bng 15 250 50 0 empty empty empty 17 7 0 10 -262144 -1
-1;
#X obj 300 158 *~ 0.5;
#X obj 359 194 dac~;
#X obj 432 91 bng 15 250 50 0 empty empty empty 17 7 0 10 -262144 -1
-1;
#X obj 426 157 *~ 0.5;
#X obj 742 24 bng 15 250 50 0 empty empty empty 17 7 0 10 -262144 -1
-1;
#X obj 742 51 openpanel;
#X obj 742 80 soundfiler;
#X text 772 12 Click to load sample;
#X obj 743 115 soundfiler;
#X obj 742 -5 table closeHat;
#X msg 745 80 read -resize \$1 closeHat;
#X obj 741 171 bng 15 250 50 0 empty empty empty 17 7 0 10 -262144
-1 -1;
#X obj 741 198 openpanel;
#X obj 741 227 soundfiler;
#X text 771 159 Click to load sample;
#X obj 742 262 soundfiler;
#X obj 741 142 table openHat;
#X msg 745 227 read -resize \$1 openHat;
#X obj 302 129 tabplay~ closeHat;
#X obj 428 128 tabplay~ openHat;
#X obj 179 -55 route 1;
#X obj 347 -73 route 0;
#X obj 299 7 print;
#X obj 551 -59 print;
#X obj 342 102 * 0.009;
#X obj 468 101 * 0.009;
#X obj 86 -54 route 4;
#X connect 0 0 65 0;
#X connect 0 0 41 0;
#X connect 0 0 71 0;
#X connect 0 0 66 0;
#X connect 1 0 15 0;
#X connect 2 0 1 0;
#X connect 3 0 4 0;
#X connect 4 0 16 0;
#X connect 6 0 7 0;
#X connect 7 0 13 0;
#X connect 9 0 10 0;
#X connect 10 0 14 0;
#X connect 11 0 38 0;
#X connect 13 0 8 0;
#X connect 14 0 11 0;
#X connect 15 0 18 0;
#X connect 15 0 18 1;
#X connect 16 0 42 0;
#X connect 16 0 42 1;
#X connect 19 0 20 0;
#X connect 19 0 21 0;
#X connect 20 0 0 0;
#X connect 21 0 0 0;
#X connect 22 0 0 0;
#X connect 23 0 22 0;
#X connect 25 0 26 0;
#X connect 26 0 27 0;
#X connect 27 0 31 0;
#X connect 27 0 6 0;
#X connect 27 1 28 0;
#X connect 27 1 9 0;
#X connect 27 2 30 0;
#X connect 27 3 29 0;
#X connect 27 4 32 0;
#X connect 34 0 7 0;
#X connect 35 0 36 0;
#X connect 36 0 37 0;
#X connect 39 0 16 1;
#X connect 40 0 15 1;
#X connect 43 0 44 0;
#X connect 43 1 47 0;
#X connect 43 2 69 0;
#X connect 43 2 70 0;
#X connect 44 0 63 0;
#X connect 45 0 46 0;
#X connect 45 0 46 1;
#X connect 47 0 64 0;
#X connect 48 0 46 0;
#X connect 48 0 46 1;
#X connect 49 0 50 0;
#X connect 50 0 55 0;
#X connect 51 0 53 0;
#X connect 55 0 51 0;
#X connect 56 0 57 0;
#X connect 57 0 62 0;
#X connect 58 0 60 0;
#X connect 62 0 58 0;
#X connect 63 0 45 0;
#X connect 64 0 48 0;
#X connect 65 0 2 0;
#X connect 65 1 40 0;
#X connect 66 1 68 0;
#X connect 66 1 43 0;
#X connect 69 0 45 1;
#X connect 70 0 48 1;
#X connect 71 0 3 0;
#X connect 71 1 39 0;
