#N canvas 1911 0 1920 978 10;
#X declare -lib mrpeach;
#X obj 38 -65 comport 9600;
#X obj 738 -350 table snare;
#X obj 738 -318 bng 15 250 50 0 empty empty empty 17 7 0 10 -262144
-1 -1;
#X obj 738 -288 openpanel;
#X obj 740 -225 soundfiler;
#X obj 739 -134 bng 15 250 50 0 empty empty empty 17 7 0 10 -262144
-1 -1;
#X obj 739 -104 openpanel;
#X obj 737 -158 table bass;
#X msg 738 -253 read -resize \$1 snare;
#X msg 740 -74 read -resize \$1 bass;
#X obj 55 -148 bng 15 250 50 0 empty empty empty 17 7 0 10 -262144
-1 -1;
#X msg -5 -124 devices;
#X msg 38 -97 open 6;
#X msg 99 -97 close 6;
#X obj 106 -147 bng 15 250 50 0 empty empty empty 17 7 0 10 -262144
-1 -1;
#X obj 13 -350 import mrpeach;
#X obj 741 -47 soundfiler;
#X obj 1275 -149 route 2 3;
#X obj 1238 -120 bng 15 250 50 0 empty empty empty 17 7 0 10 -262144
-1 -1;
#X obj 1222 -20 *~ 0.5;
#X obj 1303 4 dac~;
#X obj 1276 -118 bng 15 250 50 0 empty empty empty 17 7 0 10 -262144
-1 -1;
#X obj 1346 -13 *~ 0.5;
#X obj 739 24 bng 15 250 50 0 empty empty empty 17 7 0 10 -262144 -1
-1;
#X obj 739 54 openpanel;
#X obj 739 109 soundfiler;
#X obj 739 -8 table closeHat;
#X msg 739 81 read -resize \$1 closeHat;
#X obj 739 182 bng 15 250 50 0 empty empty empty 17 7 0 10 -262144
-1 -1;
#X obj 739 202 openpanel;
#X obj 736 259 soundfiler;
#X obj 739 157 table openHat;
#X msg 740 233 read -resize \$1 openHat;
#X obj 1234 -51 tabplay~ closeHat;
#X obj 1349 -51 tabplay~ openHat;
#X obj 49 13 route 0;
#X obj 1283 -27 * 0.009;
#X obj 1363 -34 * 0.009;
#X obj 142 -64 print;
#X msg 1386 -112 0;
#X msg 1335 -103 1;
#X obj 1348 -121 bng 15 250 50 0 empty empty empty 17 7 0 10 -262144
-1 -1;
#X obj 1301 -77 spigot;
#X obj 376 59 bng 15 250 50 0 empty empty empty 17 7 0 10 -262144 -1
-1;
#X obj 370 163 *~ 0.5;
#X obj 370 195 dac~;
#X obj 467 67 * 0.009;
#X obj 382 -3 route 5;
#X obj 340 120 tabplay~ leftTom;
#X obj 735 347 bng 15 250 50 0 empty empty empty 17 7 0 10 -262144
-1 -1;
#X obj 735 377 openpanel;
#X obj 735 441 soundfiler;
#X obj 735 315 table leftTom;
#X msg 735 409 read -resize \$1 leftTom;
#X obj 741 506 bng 15 250 50 0 empty empty empty 17 7 0 10 -262144
-1 -1;
#X obj 741 536 openpanel;
#X obj 747 590 soundfiler;
#X obj 731 479 table rightTom;
#X msg 744 563 read -resize \$1 rightTom;
#X obj 747 675 bng 15 250 50 0 empty empty empty 17 7 0 10 -262144
-1 -1;
#X obj 747 705 openpanel;
#X obj 751 776 soundfiler;
#X obj 740 644 table crash;
#X msg 747 737 read -resize \$1 crash;
#X msg 78 522 connect localhost 9001;
#X obj 242 555 udpsend;
#X obj 318 518 packOSC;
#X floatatom 372 382 5 0 0 0 - - -;
#X msg 130 491 disconnect;
#X obj 271 255 moses 15;
#X msg 247 292 send /drum \$1;
#X msg 345 292 send /power \$1;
#X obj 450 152 spigot;
#X msg 401 81 1;
#X obj 447 15 pack;
#X obj 460 44 unpack f;
#X msg 419 49 0;
#X obj 226 49 bng 15 250 50 0 empty empty empty 17 7 0 10 -262144 -1
-1;
#X obj 220 153 *~ 0.5;
#X obj 220 185 dac~;
#X obj 299 75 * 0.009;
#X obj 272 137 spigot;
#X msg 251 71 1;
#X obj 294 20 pack;
#X obj 300 51 unpack f;
#X msg 269 39 0;
#X obj 230 3 route 4;
#X obj 212 112 tabplay~ bass;
#X obj 53 285 bng 15 250 50 0 empty empty empty 17 7 0 10 -262144 -1
-1;
#X obj 47 389 *~ 0.5;
#X obj 47 421 dac~;
#X obj 127 378 spigot;
#X msg 78 307 1;
#X obj 124 241 pack;
#X obj 137 270 unpack f;
#X msg 96 275 0;
#X obj 17 346 tabplay~ crash;
#X obj 59 223 route 7;
#X obj -112 304 bng 15 250 50 0 empty empty empty 17 7 0 10 -262144
-1 -1;
#X obj -118 408 *~ 0.5;
#X obj -118 440 dac~;
#X obj -21 312 * 0.009;
#X obj -38 397 spigot;
#X msg -87 326 1;
#X obj -41 260 pack;
#X obj -28 289 unpack f;
#X msg -69 294 0;
#X obj -106 242 route 6;
#X obj -148 365 tabplay~ rightTom;
#X obj -149 94 bng 15 250 50 0 empty empty empty 17 7 0 10 -262144
-1 -1;
#X obj -155 198 *~ 0.5;
#X obj -155 230 dac~;
#X obj -75 187 spigot;
#X msg -124 116 1;
#X obj -78 50 pack;
#X obj -65 79 unpack f;
#X msg -106 84 0;
#X obj -58 102 * 0.01;
#X obj -143 32 route 1;
#X obj -185 155 tabplay~ snare;
#X msg 550 -258 read -resize snare.wav snare;
#X obj 513 -162 bng 15 250 50 0 empty empty empty 17 7 0 10 -262144
-1 -1;
#X msg 538 -145 read -resize bass.wav bass;
#X obj 487 1 bng 15 250 50 0 empty empty empty 17 7 0 10 -262144 -1
-1;
#X obj 504 191 bng 15 250 50 0 empty empty empty 17 7 0 10 -262144
-1 -1;
#X msg 529 208 read -resize openHat.wav openHat;
#X text 772 170 comment;
#X text 772 24 comment;
#X text 769 -140 comment;
#X text 738 -266 comment;
#X text 735 399 comment;
#X text 741 558 comment;
#X text 747 727 comment;
#X obj 491 348 bng 15 250 50 0 empty empty empty 17 7 0 10 -262144
-1 -1;
#X msg 516 365 read -resize leftTom.wav leftTom;
#X obj 498 519 bng 15 250 50 0 empty empty empty 17 7 0 10 -262144
-1 -1;
#X msg 523 536 read -resize rightTom.wav rightTom;
#X obj 488 667 bng 15 250 50 0 empty empty empty 17 7 0 10 -262144
-1 -1;
#X msg 513 684 read -resize crash.wav crash;
#X obj 551 -287 loadbang;
#X obj 540 -184 loadbang;
#X obj 517 -18 loadbang;
#X obj 535 168 loadbang;
#X obj 524 319 loadbang;
#X obj 525 501 loadbang;
#X obj 514 635 loadbang;
#X msg 512 18 read -resize closeHat.wav closeHat;
#X obj 43 75 bng 15 250 50 0 empty empty empty 17 7 0 10 -262144 -1
-1;
#X obj 8 121 *~ 0.5;
#X obj 21 147 dac~;
#X obj 120 121 * 0.009;
#X obj 76 126 spigot;
#X msg 91 80 1;
#X obj 142 76 pack;
#X obj 129 99 unpack f;
#X msg 112 59 0;
#X obj 52 42 route 2 3;
#X obj 71 64 bng 15 250 50 0 empty empty empty 17 7 0 10 -262144 -1
-1;
#X obj 6 100 tabplay~ closeHat;
#X obj 60 146 tabplay~ openHat;
#X obj 62 166 *~ 0.5;
#X obj 64 186 dac~;
#X obj 144 293 * 0.006;
#X connect 0 0 35 0;
#X connect 0 0 47 0;
#X connect 0 0 69 0;
#X connect 0 0 38 0;
#X connect 0 0 86 0;
#X connect 0 0 97 0;
#X connect 0 0 118 0;
#X connect 0 0 107 0;
#X connect 2 0 3 0;
#X connect 3 0 8 0;
#X connect 5 0 6 0;
#X connect 6 0 9 0;
#X connect 8 0 4 0;
#X connect 9 0 16 0;
#X connect 10 0 11 0;
#X connect 10 0 12 0;
#X connect 11 0 0 0;
#X connect 12 0 0 0;
#X connect 13 0 0 0;
#X connect 14 0 13 0;
#X connect 17 0 18 0;
#X connect 17 1 21 0;
#X connect 17 2 41 0;
#X connect 17 2 42 0;
#X connect 18 0 33 0;
#X connect 18 0 40 0;
#X connect 19 0 20 0;
#X connect 19 0 20 1;
#X connect 21 0 34 0;
#X connect 21 0 40 0;
#X connect 22 0 20 0;
#X connect 22 0 20 1;
#X connect 23 0 24 0;
#X connect 24 0 27 0;
#X connect 27 0 25 0;
#X connect 28 0 29 0;
#X connect 29 0 32 0;
#X connect 32 0 30 0;
#X connect 33 0 19 0;
#X connect 34 0 22 0;
#X connect 35 1 156 0;
#X connect 36 0 19 1;
#X connect 37 0 22 1;
#X connect 39 0 42 1;
#X connect 40 0 42 1;
#X connect 41 0 39 0;
#X connect 42 0 36 0;
#X connect 42 0 37 0;
#X connect 43 0 48 0;
#X connect 43 0 73 0;
#X connect 44 0 45 0;
#X connect 44 0 45 1;
#X connect 46 0 72 0;
#X connect 47 0 43 0;
#X connect 47 1 74 0;
#X connect 47 1 76 0;
#X connect 48 0 44 0;
#X connect 49 0 50 0;
#X connect 50 0 53 0;
#X connect 53 0 51 0;
#X connect 54 0 55 0;
#X connect 55 0 58 0;
#X connect 58 0 56 0;
#X connect 59 0 60 0;
#X connect 60 0 63 0;
#X connect 63 0 61 0;
#X connect 64 0 65 0;
#X connect 66 0 65 0;
#X connect 67 0 70 0;
#X connect 68 0 65 0;
#X connect 69 0 70 0;
#X connect 69 1 71 0;
#X connect 70 0 66 0;
#X connect 71 0 66 0;
#X connect 72 0 44 1;
#X connect 73 0 72 1;
#X connect 74 0 75 0;
#X connect 75 0 46 0;
#X connect 76 0 72 1;
#X connect 77 0 82 0;
#X connect 77 0 87 0;
#X connect 78 0 79 0;
#X connect 78 0 79 1;
#X connect 80 0 81 0;
#X connect 81 0 78 1;
#X connect 82 0 81 1;
#X connect 83 0 84 0;
#X connect 84 0 80 0;
#X connect 85 0 81 1;
#X connect 86 0 77 0;
#X connect 86 1 83 0;
#X connect 86 1 85 0;
#X connect 87 0 78 0;
#X connect 88 0 92 0;
#X connect 88 0 96 0;
#X connect 89 0 90 0;
#X connect 89 0 90 1;
#X connect 91 0 89 1;
#X connect 92 0 91 1;
#X connect 93 0 94 0;
#X connect 94 0 162 0;
#X connect 95 0 91 1;
#X connect 96 0 89 0;
#X connect 97 0 88 0;
#X connect 97 1 93 0;
#X connect 97 1 95 0;
#X connect 98 0 103 0;
#X connect 98 0 108 0;
#X connect 99 0 100 0;
#X connect 99 0 100 1;
#X connect 101 0 102 0;
#X connect 102 0 99 1;
#X connect 103 0 102 1;
#X connect 104 0 105 0;
#X connect 105 0 101 0;
#X connect 106 0 102 1;
#X connect 107 0 98 0;
#X connect 107 1 104 0;
#X connect 107 1 106 0;
#X connect 108 0 99 0;
#X connect 109 0 113 0;
#X connect 109 0 119 0;
#X connect 110 0 111 0;
#X connect 110 0 111 1;
#X connect 112 0 110 1;
#X connect 113 0 112 1;
#X connect 114 0 115 0;
#X connect 115 0 117 0;
#X connect 116 0 112 1;
#X connect 117 0 112 0;
#X connect 118 0 109 0;
#X connect 118 1 114 0;
#X connect 118 1 116 0;
#X connect 119 0 110 0;
#X connect 120 0 4 0;
#X connect 121 0 122 0;
#X connect 122 0 16 0;
#X connect 123 0 146 0;
#X connect 124 0 125 0;
#X connect 125 0 30 0;
#X connect 133 0 134 0;
#X connect 134 0 51 0;
#X connect 135 0 136 0;
#X connect 136 0 56 0;
#X connect 137 0 138 0;
#X connect 138 0 61 0;
#X connect 139 0 120 0;
#X connect 140 0 122 0;
#X connect 141 0 146 0;
#X connect 142 0 125 0;
#X connect 143 0 134 0;
#X connect 144 0 136 0;
#X connect 145 0 138 0;
#X connect 146 0 25 0;
#X connect 147 0 152 0;
#X connect 147 0 158 0;
#X connect 148 0 149 0;
#X connect 148 0 149 1;
#X connect 150 0 151 0;
#X connect 151 0 148 1;
#X connect 151 0 160 1;
#X connect 152 0 151 1;
#X connect 153 0 154 0;
#X connect 154 0 150 0;
#X connect 155 0 151 1;
#X connect 156 0 147 0;
#X connect 156 1 157 0;
#X connect 156 2 153 0;
#X connect 156 2 155 0;
#X connect 157 0 152 0;
#X connect 157 0 159 0;
#X connect 158 0 148 0;
#X connect 159 0 160 0;
#X connect 160 0 161 0;
#X connect 160 0 161 1;
#X connect 162 0 91 0;
